<svg width="512" height="512" viewBox="0 0 512 512" fill="none" xmlns="http://www.w3.org/2000/svg">
  <rect width="512" height="512" rx="128" fill="url(#paint0_linear)" />
  
  <!-- Microphone Icon -->
  <path d="M256 352C300.816 352 337 315.816 337 271V160C337 115.184 300.816 79 256 79C211.184 79 175 115.184 175 160V271C175 315.816 211.184 352 256 352Z" fill="#FFFFFF" fill-opacity="0.85" />
  
  <!-- Sound Waves -->
  <path d="M368 212V270C368 335.768 314.768 389 249 389C183.232 389 130 335.768 130 270V212H106V270C106 346.215 164.066 408.599 239 414.659V464H206C197.163 464 190 471.163 190 480H308C308 471.163 300.837 464 292 464H273V414.659C347.934 408.599 406 346.215 406 270V212H368Z" fill="#FFFFFF" />
  
  <!-- Inner Pulse Circles -->
  <circle cx="256" cy="256" r="70" stroke="#FFFFFF" stroke-opacity="0.4" stroke-width="8" stroke-dasharray="20 15" />
  <circle cx="256" cy="256" r="120" stroke="#FFFFFF" stroke-opacity="0.25" stroke-width="6" stroke-dasharray="15 20" />
  
  <defs>
    <linearGradient id="paint0_linear" x1="0" y1="0" x2="512" y2="512" gradientUnits="userSpaceOnUse">
      <stop stop-color="#4F46E5" />
      <stop offset="1" stop-color="#7C3AED" />
    </linearGradient>
  </defs>
</svg> 