<svg xmlns="http://www.w3.org/2000/svg" width="512" height="512" viewBox="0 0 512 512" fill="none">
  <path fill-rule="evenodd" clip-rule="evenodd" d="M256 0C397.385 0 512 114.615 512 256C512 397.385 397.385 512 256 512C114.615 512 0 397.385 0 256C0 114.615 114.615 0 256 0ZM256 352C300.816 352 337 315.816 337 271V160C337 115.184 300.816 79 256.5 79C211.684 79 175 115.184 175 160V271C175 315.816 211.184 352 256 352ZM368 212V270C368 335.768 314.768 389 249 389C183.232 389 130 335.768 130 270V212H106V270C106 346.215 164.066 408.599 239 414.659V464H206C197.163 464 190 471.163 190 480H308C308 471.163 300.837 464 292 464H273V414.659C347.934 408.599 406 346.215 406 270V212H368Z" fill="#000000" />
</svg> 